<svg xmlns="http://www.w3.org/2000/svg" width="419" height="127" viewBox="0 0 419 127">
<g fill="#000000" fill-rule="evenodd" stroke="none">
<path d="M 385 50 L 385 52 L 386 53 L 386 55 L 387 56 L 387 58 L 388 59 L 388 61 L 389 62 L 389 64 L 390 65 L 390 66 L 391 67 L 391 69 L 392 70 L 392 72 L 393 73 L 393 75 L 394 76 L 394 78 L 395 79 L 395 81 L 396 82 L 396 84 L 397 85 L 397 86 L 398 87 L 405 87 L 406 86 L 406 85 L 407 84 L 407 81 L 408 80 L 408 78 L 409 77 L 409 76 L 410 75 L 410 74 L 411 73 L 411 70 L 412 69 L 412 67 L 413 66 L 413 64 L 414 63 L 414 62 L 415 61 L 416 61 L 415 60 L 415 59 L 416 58 L 416 56 L 417 55 L 417 53 L 418 52 L 418 50 L 411 50 L 411 51 L 410 52 L 410 54 L 409 55 L 409 57 L 408 58 L 408 60 L 407 61 L 407 64 L 406 65 L 406 66 L 405 67 L 405 70 L 404 71 L 404 73 L 403 74 L 403 75 L 402 76 L 400 74 L 400 72 L 399 71 L 399 69 L 398 68 L 398 66 L 397 65 L 397 63 L 396 62 L 396 60 L 395 59 L 395 56 L 394 55 L 394 54 L 393 53 L 393 51 L 392 50 Z"/>
<path d="M 201 50 L 201 87 L 207 87 L 208 86 L 208 50 Z"/>
<path d="M 362 49 L 361 50 L 359 50 L 358 51 L 357 51 L 356 52 L 355 52 L 350 57 L 350 58 L 349 59 L 349 60 L 348 61 L 348 76 L 349 77 L 349 78 L 350 79 L 350 80 L 354 84 L 355 84 L 356 85 L 357 85 L 358 86 L 359 86 L 360 87 L 370 87 L 371 86 L 372 86 L 373 85 L 374 85 L 375 84 L 376 84 L 380 80 L 380 78 L 381 77 L 374 77 L 374 78 L 371 81 L 370 81 L 369 82 L 363 82 L 362 81 L 360 81 L 357 78 L 357 77 L 356 76 L 356 75 L 355 74 L 355 71 L 357 69 L 382 69 L 382 64 L 381 63 L 381 60 L 380 59 L 380 58 L 379 57 L 379 56 L 376 53 L 375 53 L 373 51 L 372 51 L 371 50 L 363 50 Z"/>
<path d="M 276 49 L 275 50 L 269 50 L 268 51 L 267 51 L 266 52 L 265 52 L 264 53 L 263 53 L 261 55 L 261 56 L 259 58 L 259 59 L 258 60 L 258 64 L 257 65 L 257 71 L 258 72 L 258 76 L 259 77 L 259 78 L 260 79 L 260 80 L 264 84 L 265 84 L 266 85 L 267 85 L 268 86 L 270 86 L 271 87 L 280 87 L 281 86 L 283 86 L 285 84 L 286 84 L 290 80 L 290 79 L 291 78 L 291 77 L 292 76 L 292 75 L 293 74 L 293 62 L 292 61 L 292 60 L 291 59 L 291 58 L 290 57 L 290 56 L 287 53 L 286 53 L 284 51 L 282 51 L 281 50 L 277 50 Z"/>
<path d="M 237 49 L 236 50 L 233 50 L 232 51 L 231 51 L 229 53 L 228 53 L 226 51 L 226 50 L 219 50 L 219 87 L 225 87 L 226 86 L 226 62 L 227 61 L 227 59 L 230 56 L 231 56 L 232 55 L 237 55 L 238 56 L 239 56 L 241 58 L 241 59 L 242 60 L 242 86 L 243 87 L 249 87 L 250 86 L 250 59 L 249 58 L 249 57 L 248 56 L 248 55 L 247 54 L 247 53 L 245 51 L 244 51 L 243 50 L 239 50 L 238 49 Z"/>
<path d="M 302 37 L 301 38 L 301 86 L 302 87 L 318 87 L 319 86 L 324 86 L 325 85 L 327 85 L 329 83 L 330 83 L 331 82 L 332 82 L 334 80 L 335 80 L 336 79 L 336 78 L 338 76 L 338 75 L 339 74 L 339 73 L 340 72 L 340 69 L 341 68 L 341 56 L 340 55 L 340 51 L 339 50 L 339 49 L 338 48 L 338 47 L 331 40 L 330 40 L 329 39 L 327 39 L 326 38 L 322 38 L 321 37 Z"/>
<path d="M 152 37 L 152 86 L 153 87 L 159 87 L 159 86 L 160 85 L 160 53 L 161 52 L 164 55 L 164 56 L 166 58 L 166 59 L 167 60 L 167 61 L 169 63 L 169 64 L 172 67 L 172 68 L 175 71 L 175 72 L 176 73 L 176 74 L 178 76 L 178 77 L 181 80 L 181 81 L 183 83 L 183 84 L 184 85 L 184 86 L 185 87 L 190 87 L 191 86 L 191 37 L 184 37 L 184 69 L 183 70 L 181 68 L 181 67 L 178 64 L 178 63 L 176 61 L 176 60 L 174 58 L 174 57 L 171 54 L 171 53 L 168 50 L 168 49 L 167 48 L 167 47 L 165 45 L 165 44 L 163 42 L 163 41 L 160 38 L 160 37 Z"/>
<path d="M 204 36 L 203 37 L 202 37 L 200 39 L 200 42 L 202 44 L 207 44 L 209 42 L 209 38 L 208 37 L 207 37 L 206 36 Z"/>
<path d="M 7 2 L 6 3 L 5 3 L 3 5 L 2 5 L 2 6 L 0 8 L 0 91 L 4 95 L 7 95 L 8 96 L 49 96 L 50 97 L 50 98 L 51 99 L 51 108 L 50 109 L 51 110 L 50 111 L 50 114 L 49 115 L 27 115 L 25 117 L 25 120 L 27 122 L 98 122 L 101 119 L 101 118 L 100 117 L 100 116 L 99 116 L 98 115 L 76 115 L 74 113 L 74 99 L 75 98 L 75 97 L 76 96 L 118 96 L 119 95 L 120 95 L 122 93 L 123 93 L 123 92 L 125 90 L 125 8 L 123 6 L 123 5 L 122 4 L 121 4 L 120 3 L 115 3 L 114 2 L 113 3 L 111 3 L 110 2 L 98 2 L 97 3 L 93 3 L 92 2 L 84 2 L 83 3 L 77 3 L 76 2 L 67 2 L 66 3 L 65 3 L 64 2 L 51 2 L 50 3 L 49 3 L 48 2 L 47 2 L 46 3 L 43 3 L 42 2 L 34 2 L 33 3 L 32 2 L 26 2 L 25 3 L 24 3 L 23 2 L 22 2 L 21 3 L 20 2 L 16 2 L 15 3 L 14 3 L 13 2 L 11 2 L 10 3 L 9 3 L 8 2 Z"/>
</g></svg>